<?xml version="1.0" encoding="UTF-8"?>
<svg xmlns="http://www.w3.org/2000/svg" viewBox="0 0 1600 900" preserveAspectRatio="xMidYMid slice">
<rect width="1600" height="900" fill="#080c16"/>
<rect x="0" y="0" width="4" height="900" fill="#0d1520" opacity="0.6"/>
<rect x="200" y="0" width="4" height="900" fill="#0d1520" opacity="0.6"/>
<rect x="400" y="0" width="4" height="900" fill="#0d1520" opacity="0.6"/>
<rect x="600" y="0" width="4" height="900" fill="#0d1520" opacity="0.6"/>
<rect x="800" y="0" width="4" height="900" fill="#0d1520" opacity="0.6"/>
<rect x="1000" y="0" width="4" height="900" fill="#0d1520" opacity="0.6"/>
<rect x="1200" y="0" width="4" height="900" fill="#0d1520" opacity="0.6"/>
<rect x="1400" y="0" width="4" height="900" fill="#0d1520" opacity="0.6"/>
<rect x="0" y="67" width="20" height="103" fill="#1e3060"/>
<rect x="22" y="60" width="28" height="110" fill="#2a1015"/>
<rect x="52" y="63" width="30" height="107" fill="#0f2515"/>
<rect x="84" y="63" width="18" height="107" fill="#282510"/>
<rect x="104" y="67" width="34" height="103" fill="#1e1828"/>
<rect x="140" y="44" width="30" height="126" fill="#3a2208"/>
<rect x="172" y="20" width="32" height="150" fill="#162832"/>
<rect x="206" y="27" width="24" height="143" fill="#281215"/>
<rect x="232" y="56" width="24" height="114" fill="#0f2035"/>
<rect x="255" y="56" width="1" height="114" fill="#00000055"/>
<rect x="258" y="63" width="20" height="107" fill="#25200e"/>
<rect x="280" y="33" width="36" height="137" fill="#12283a"/>
<rect x="315" y="33" width="1" height="137" fill="#00000055"/>
<rect x="318" y="37" width="26" height="133" fill="#301020"/>
<rect x="343" y="37" width="1" height="133" fill="#00000055"/>
<rect x="346" y="64" width="22" height="106" fill="#1a2a18"/>
<rect x="370" y="16" width="34" height="154" fill="#2a1a08"/>
<rect x="406" y="27" width="28" height="143" fill="#0e1c30"/>
<rect x="436" y="23" width="28" height="147" fill="#281010"/>
<rect x="463" y="23" width="1" height="147" fill="#00000055"/>
<rect x="466" y="17" width="28" height="153" fill="#1e3060"/>
<rect x="496" y="31" width="26" height="139" fill="#2a1015"/>
<rect x="524" y="47" width="36" height="123" fill="#0f2515"/>
<rect x="559" y="47" width="1" height="123" fill="#00000055"/>
<rect x="562" y="32" width="20" height="138" fill="#282510"/>
<rect x="584" y="59" width="28" height="111" fill="#1e1828"/>
<rect x="614" y="55" width="30" height="115" fill="#3a2208"/>
<rect x="646" y="55" width="18" height="115" fill="#162832"/>
<rect x="666" y="45" width="36" height="125" fill="#281215"/>
<rect x="704" y="16" width="34" height="154" fill="#0f2035"/>
<rect x="740" y="45" width="26" height="125" fill="#25200e"/>
<rect x="765" y="45" width="1" height="125" fill="#00000055"/>
<rect x="768" y="60" width="26" height="110" fill="#12283a"/>
<rect x="796" y="36" width="30" height="134" fill="#301020"/>
<rect x="825" y="36" width="1" height="134" fill="#00000055"/>
<rect x="828" y="15" width="22" height="155" fill="#1a2a18"/>
<rect x="852" y="9" width="28" height="161" fill="#2a1a08"/>
<rect x="882" y="63" width="26" height="107" fill="#0e1c30"/>
<rect x="910" y="59" width="20" height="111" fill="#281010"/>
<rect x="932" y="33" width="22" height="137" fill="#1e3060"/>
<rect x="956" y="9" width="34" height="161" fill="#2a1015"/>
<rect x="989" y="9" width="1" height="161" fill="#00000055"/>
<rect x="992" y="17" width="30" height="153" fill="#0f2515"/>
<rect x="1024" y="28" width="20" height="142" fill="#282510"/>
<rect x="1043" y="28" width="1" height="142" fill="#00000055"/>
<rect x="1046" y="23" width="32" height="147" fill="#1e1828"/>
<rect x="1080" y="43" width="32" height="127" fill="#3a2208"/>
<rect x="1114" y="11" width="32" height="159" fill="#162832"/>
<rect x="1145" y="11" width="1" height="159" fill="#00000055"/>
<rect x="1148" y="14" width="30" height="156" fill="#281215"/>
<rect x="1177" y="14" width="1" height="156" fill="#00000055"/>
<rect x="1180" y="18" width="32" height="152" fill="#0f2035"/>
<rect x="1211" y="18" width="1" height="152" fill="#00000055"/>
<rect x="1214" y="59" width="28" height="111" fill="#25200e"/>
<rect x="1241" y="59" width="1" height="111" fill="#00000055"/>
<rect x="1244" y="12" width="30" height="158" fill="#12283a"/>
<rect x="1273" y="12" width="1" height="158" fill="#00000055"/>
<rect x="1276" y="33" width="18" height="137" fill="#301020"/>
<rect x="1296" y="13" width="20" height="157" fill="#1a2a18"/>
<rect x="1315" y="13" width="1" height="157" fill="#00000055"/>
<rect x="1318" y="54" width="32" height="116" fill="#2a1a08"/>
<rect x="1352" y="12" width="34" height="158" fill="#0e1c30"/>
<rect x="1388" y="20" width="26" height="150" fill="#281010"/>
<rect x="1413" y="20" width="1" height="150" fill="#00000055"/>
<rect x="1416" y="23" width="30" height="147" fill="#1e3060"/>
<rect x="1448" y="12" width="26" height="158" fill="#2a1015"/>
<rect x="1476" y="17" width="30" height="153" fill="#0f2515"/>
<rect x="1508" y="13" width="28" height="157" fill="#282510"/>
<rect x="1535" y="13" width="1" height="157" fill="#00000055"/>
<rect x="1538" y="26" width="28" height="144" fill="#1e1828"/>
<rect x="1568" y="42" width="36" height="128" fill="#3a2208"/>
<rect x="1603" y="42" width="1" height="128" fill="#00000055"/>
<rect x="0" y="170" width="1600" height="14" fill="#1a2535"/>
<rect x="0" y="184" width="1600" height="8" fill="#00000040"/>
<rect x="0" y="238" width="20" height="116" fill="#162832"/>
<rect x="22" y="217" width="18" height="137" fill="#281215"/>
<rect x="42" y="252" width="28" height="102" fill="#0f2035"/>
<rect x="69" y="252" width="1" height="102" fill="#00000055"/>
<rect x="72" y="239" width="18" height="115" fill="#25200e"/>
<rect x="89" y="239" width="1" height="115" fill="#00000055"/>
<rect x="92" y="248" width="36" height="106" fill="#12283a"/>
<rect x="130" y="240" width="26" height="114" fill="#301020"/>
<rect x="158" y="218" width="34" height="136" fill="#1a2a18"/>
<rect x="194" y="204" width="26" height="150" fill="#2a1a08"/>
<rect x="222" y="213" width="20" height="141" fill="#0e1c30"/>
<rect x="244" y="225" width="22" height="129" fill="#281010"/>
<rect x="265" y="225" width="1" height="129" fill="#00000055"/>
<rect x="268" y="249" width="20" height="105" fill="#1e3060"/>
<rect x="287" y="249" width="1" height="105" fill="#00000055"/>
<rect x="290" y="238" width="20" height="116" fill="#2a1015"/>
<rect x="312" y="244" width="26" height="110" fill="#0f2515"/>
<rect x="340" y="238" width="26" height="116" fill="#282510"/>
<rect x="365" y="238" width="1" height="116" fill="#00000055"/>
<rect x="368" y="204" width="26" height="150" fill="#1e1828"/>
<rect x="393" y="204" width="1" height="150" fill="#00000055"/>
<rect x="396" y="249" width="20" height="105" fill="#3a2208"/>
<rect x="415" y="249" width="1" height="105" fill="#00000055"/>
<rect x="418" y="195" width="18" height="159" fill="#162832"/>
<rect x="435" y="195" width="1" height="159" fill="#00000055"/>
<rect x="438" y="243" width="28" height="111" fill="#281215"/>
<rect x="468" y="201" width="28" height="153" fill="#0f2035"/>
<rect x="495" y="201" width="1" height="153" fill="#00000055"/>
<rect x="498" y="230" width="24" height="124" fill="#25200e"/>
<rect x="521" y="230" width="1" height="124" fill="#00000055"/>
<rect x="524" y="197" width="32" height="157" fill="#12283a"/>
<rect x="555" y="197" width="1" height="157" fill="#00000055"/>
<rect x="558" y="227" width="32" height="127" fill="#301020"/>
<rect x="589" y="227" width="1" height="127" fill="#00000055"/>
<rect x="592" y="213" width="30" height="141" fill="#1a2a18"/>
<rect x="624" y="235" width="28" height="119" fill="#2a1a08"/>
<rect x="651" y="235" width="1" height="119" fill="#00000055"/>
<rect x="654" y="209" width="34" height="145" fill="#0e1c30"/>
<rect x="690" y="249" width="36" height="105" fill="#281010"/>
<rect x="725" y="249" width="1" height="105" fill="#00000055"/>
<rect x="728" y="198" width="30" height="156" fill="#1e3060"/>
<rect x="757" y="198" width="1" height="156" fill="#00000055"/>
<rect x="760" y="195" width="18" height="159" fill="#2a1015"/>
<rect x="780" y="248" width="24" height="106" fill="#0f2515"/>
<rect x="806" y="228" width="28" height="126" fill="#282510"/>
<rect x="833" y="228" width="1" height="126" fill="#00000055"/>
<rect x="836" y="238" width="34" height="116" fill="#1e1828"/>
<rect x="869" y="238" width="1" height="116" fill="#00000055"/>
<rect x="872" y="248" width="34" height="106" fill="#3a2208"/>
<rect x="905" y="248" width="1" height="106" fill="#00000055"/>
<rect x="908" y="221" width="34" height="133" fill="#162832"/>
<rect x="941" y="221" width="1" height="133" fill="#00000055"/>
<rect x="944" y="213" width="28" height="141" fill="#281215"/>
<rect x="974" y="229" width="32" height="125" fill="#0f2035"/>
<rect x="1005" y="229" width="1" height="125" fill="#00000055"/>
<rect x="1008" y="225" width="32" height="129" fill="#25200e"/>
<rect x="1039" y="225" width="1" height="129" fill="#00000055"/>
<rect x="1042" y="252" width="20" height="102" fill="#12283a"/>
<rect x="1061" y="252" width="1" height="102" fill="#00000055"/>
<rect x="1064" y="193" width="34" height="161" fill="#301020"/>
<rect x="1100" y="222" width="28" height="132" fill="#1a2a18"/>
<rect x="1130" y="200" width="36" height="154" fill="#2a1a08"/>
<rect x="1165" y="200" width="1" height="154" fill="#00000055"/>
<rect x="1168" y="236" width="36" height="118" fill="#0e1c30"/>
<rect x="1206" y="211" width="30" height="143" fill="#281010"/>
<rect x="1235" y="211" width="1" height="143" fill="#00000055"/>
<rect x="1238" y="252" width="30" height="102" fill="#1e3060"/>
<rect x="1267" y="252" width="1" height="102" fill="#00000055"/>
<rect x="1270" y="197" width="32" height="157" fill="#2a1015"/>
<rect x="1304" y="237" width="24" height="117" fill="#0f2515"/>
<rect x="1327" y="237" width="1" height="117" fill="#00000055"/>
<rect x="1330" y="243" width="30" height="111" fill="#282510"/>
<rect x="1362" y="210" width="28" height="144" fill="#1e1828"/>
<rect x="1392" y="222" width="32" height="132" fill="#3a2208"/>
<rect x="1426" y="247" width="18" height="107" fill="#162832"/>
<rect x="1446" y="250" width="32" height="104" fill="#281215"/>
<rect x="1480" y="215" width="24" height="139" fill="#0f2035"/>
<rect x="1506" y="220" width="26" height="134" fill="#25200e"/>
<rect x="1534" y="246" width="18" height="108" fill="#12283a"/>
<rect x="1551" y="246" width="1" height="108" fill="#00000055"/>
<rect x="1554" y="220" width="24" height="134" fill="#301020"/>
<rect x="1577" y="220" width="1" height="134" fill="#00000055"/>
<rect x="1580" y="220" width="34" height="134" fill="#1a2a18"/>
<rect x="0" y="354" width="1600" height="14" fill="#1a2535"/>
<rect x="0" y="368" width="1600" height="8" fill="#00000040"/>
<rect x="0" y="418" width="18" height="120" fill="#2a1a08"/>
<rect x="17" y="418" width="1" height="120" fill="#00000055"/>
<rect x="20" y="383" width="18" height="155" fill="#0e1c30"/>
<rect x="40" y="397" width="28" height="141" fill="#281010"/>
<rect x="70" y="384" width="30" height="154" fill="#1e3060"/>
<rect x="102" y="392" width="34" height="146" fill="#2a1015"/>
<rect x="135" y="392" width="1" height="146" fill="#00000055"/>
<rect x="138" y="385" width="28" height="153" fill="#0f2515"/>
<rect x="165" y="385" width="1" height="153" fill="#00000055"/>
<rect x="168" y="384" width="24" height="154" fill="#282510"/>
<rect x="194" y="390" width="36" height="148" fill="#1e1828"/>
<rect x="232" y="421" width="28" height="117" fill="#3a2208"/>
<rect x="259" y="421" width="1" height="117" fill="#00000055"/>
<rect x="262" y="414" width="20" height="124" fill="#162832"/>
<rect x="284" y="423" width="26" height="115" fill="#281215"/>
<rect x="309" y="423" width="1" height="115" fill="#00000055"/>
<rect x="312" y="416" width="26" height="122" fill="#0f2035"/>
<rect x="337" y="416" width="1" height="122" fill="#00000055"/>
<rect x="340" y="423" width="28" height="115" fill="#25200e"/>
<rect x="367" y="423" width="1" height="115" fill="#00000055"/>
<rect x="370" y="417" width="22" height="121" fill="#12283a"/>
<rect x="391" y="417" width="1" height="121" fill="#00000055"/>
<rect x="394" y="416" width="32" height="122" fill="#301020"/>
<rect x="425" y="416" width="1" height="122" fill="#00000055"/>
<rect x="428" y="417" width="30" height="121" fill="#1a2a18"/>
<rect x="460" y="426" width="32" height="112" fill="#2a1a08"/>
<rect x="491" y="426" width="1" height="112" fill="#00000055"/>
<rect x="494" y="434" width="32" height="104" fill="#0e1c30"/>
<rect x="525" y="434" width="1" height="104" fill="#00000055"/>
<rect x="528" y="393" width="36" height="145" fill="#281010"/>
<rect x="566" y="378" width="34" height="160" fill="#1e3060"/>
<rect x="602" y="425" width="34" height="113" fill="#2a1015"/>
<rect x="638" y="436" width="22" height="102" fill="#0f2515"/>
<rect x="659" y="436" width="1" height="102" fill="#00000055"/>
<rect x="662" y="396" width="30" height="142" fill="#282510"/>
<rect x="691" y="396" width="1" height="142" fill="#00000055"/>
<rect x="694" y="415" width="28" height="123" fill="#1e1828"/>
<rect x="724" y="399" width="36" height="139" fill="#3a2208"/>
<rect x="759" y="399" width="1" height="139" fill="#00000055"/>
<rect x="762" y="394" width="20" height="144" fill="#162832"/>
<rect x="784" y="397" width="32" height="141" fill="#281215"/>
<rect x="818" y="404" width="32" height="134" fill="#0f2035"/>
<rect x="852" y="396" width="22" height="142" fill="#25200e"/>
<rect x="873" y="396" width="1" height="142" fill="#00000055"/>
<rect x="876" y="403" width="34" height="135" fill="#12283a"/>
<rect x="912" y="418" width="18" height="120" fill="#301020"/>
<rect x="932" y="400" width="34" height="138" fill="#1a2a18"/>
<rect x="968" y="410" width="26" height="128" fill="#2a1a08"/>
<rect x="996" y="389" width="26" height="149" fill="#0e1c30"/>
<rect x="1021" y="389" width="1" height="149" fill="#00000055"/>
<rect x="1024" y="397" width="24" height="141" fill="#281010"/>
<rect x="1050" y="417" width="34" height="121" fill="#1e3060"/>
<rect x="1083" y="417" width="1" height="121" fill="#00000055"/>
<rect x="1086" y="396" width="28" height="142" fill="#2a1015"/>
<rect x="1116" y="428" width="28" height="110" fill="#0f2515"/>
<rect x="1146" y="400" width="26" height="138" fill="#282510"/>
<rect x="1171" y="400" width="1" height="138" fill="#00000055"/>
<rect x="1174" y="412" width="26" height="126" fill="#1e1828"/>
<rect x="1199" y="412" width="1" height="126" fill="#00000055"/>
<rect x="1202" y="394" width="28" height="144" fill="#3a2208"/>
<rect x="1232" y="422" width="22" height="116" fill="#162832"/>
<rect x="1253" y="422" width="1" height="116" fill="#00000055"/>
<rect x="1256" y="383" width="18" height="155" fill="#281215"/>
<rect x="1273" y="383" width="1" height="155" fill="#00000055"/>
<rect x="1276" y="390" width="20" height="148" fill="#0f2035"/>
<rect x="1298" y="409" width="30" height="129" fill="#25200e"/>
<rect x="1327" y="409" width="1" height="129" fill="#00000055"/>
<rect x="1330" y="409" width="20" height="129" fill="#12283a"/>
<rect x="1349" y="409" width="1" height="129" fill="#00000055"/>
<rect x="1352" y="378" width="30" height="160" fill="#301020"/>
<rect x="1381" y="378" width="1" height="160" fill="#00000055"/>
<rect x="1384" y="400" width="26" height="138" fill="#1a2a18"/>
<rect x="1409" y="400" width="1" height="138" fill="#00000055"/>
<rect x="1412" y="411" width="30" height="127" fill="#2a1a08"/>
<rect x="1441" y="411" width="1" height="127" fill="#00000055"/>
<rect x="1444" y="383" width="26" height="155" fill="#0e1c30"/>
<rect x="1469" y="383" width="1" height="155" fill="#00000055"/>
<rect x="1472" y="410" width="26" height="128" fill="#281010"/>
<rect x="1497" y="410" width="1" height="128" fill="#00000055"/>
<rect x="1500" y="391" width="32" height="147" fill="#1e3060"/>
<rect x="1531" y="391" width="1" height="147" fill="#00000055"/>
<rect x="1534" y="420" width="28" height="118" fill="#2a1015"/>
<rect x="1564" y="423" width="32" height="115" fill="#0f2515"/>
<rect x="1598" y="432" width="30" height="106" fill="#282510"/>
<rect x="0" y="538" width="1600" height="14" fill="#1a2535"/>
<rect x="0" y="552" width="1600" height="8" fill="#00000040"/>
<rect x="0" y="579" width="22" height="143" fill="#1e1828"/>
<rect x="21" y="579" width="1" height="143" fill="#00000055"/>
<rect x="24" y="596" width="20" height="126" fill="#3a2208"/>
<rect x="46" y="596" width="26" height="126" fill="#162832"/>
<rect x="74" y="597" width="22" height="125" fill="#281215"/>
<rect x="95" y="597" width="1" height="125" fill="#00000055"/>
<rect x="98" y="570" width="18" height="152" fill="#0f2035"/>
<rect x="115" y="570" width="1" height="152" fill="#00000055"/>
<rect x="118" y="592" width="22" height="130" fill="#25200e"/>
<rect x="139" y="592" width="1" height="130" fill="#00000055"/>
<rect x="142" y="576" width="32" height="146" fill="#12283a"/>
<rect x="173" y="576" width="1" height="146" fill="#00000055"/>
<rect x="176" y="588" width="22" height="134" fill="#301020"/>
<rect x="197" y="588" width="1" height="134" fill="#00000055"/>
<rect x="200" y="567" width="34" height="155" fill="#1a2a18"/>
<rect x="236" y="595" width="32" height="127" fill="#2a1a08"/>
<rect x="270" y="581" width="36" height="141" fill="#0e1c30"/>
<rect x="305" y="581" width="1" height="141" fill="#00000055"/>
<rect x="308" y="570" width="24" height="152" fill="#281010"/>
<rect x="331" y="570" width="1" height="152" fill="#00000055"/>
<rect x="334" y="589" width="34" height="133" fill="#1e3060"/>
<rect x="367" y="589" width="1" height="133" fill="#00000055"/>
<rect x="370" y="587" width="34" height="135" fill="#2a1015"/>
<rect x="406" y="612" width="22" height="110" fill="#0f2515"/>
<rect x="430" y="605" width="18" height="117" fill="#282510"/>
<rect x="450" y="601" width="26" height="121" fill="#1e1828"/>
<rect x="475" y="601" width="1" height="121" fill="#00000055"/>
<rect x="478" y="604" width="22" height="118" fill="#3a2208"/>
<rect x="499" y="604" width="1" height="118" fill="#00000055"/>
<rect x="502" y="605" width="22" height="117" fill="#162832"/>
<rect x="526" y="576" width="18" height="146" fill="#281215"/>
<rect x="546" y="607" width="36" height="115" fill="#0f2035"/>
<rect x="584" y="576" width="18" height="146" fill="#25200e"/>
<rect x="601" y="576" width="1" height="146" fill="#00000055"/>
<rect x="604" y="571" width="28" height="151" fill="#12283a"/>
<rect x="631" y="571" width="1" height="151" fill="#00000055"/>
<rect x="634" y="613" width="28" height="109" fill="#301020"/>
<rect x="661" y="613" width="1" height="109" fill="#00000055"/>
<rect x="664" y="564" width="34" height="158" fill="#1a2a18"/>
<rect x="700" y="575" width="32" height="147" fill="#2a1a08"/>
<rect x="734" y="563" width="34" height="159" fill="#0e1c30"/>
<rect x="767" y="563" width="1" height="159" fill="#00000055"/>
<rect x="770" y="563" width="24" height="159" fill="#281010"/>
<rect x="796" y="565" width="18" height="157" fill="#1e3060"/>
<rect x="813" y="565" width="1" height="157" fill="#00000055"/>
<rect x="816" y="597" width="22" height="125" fill="#2a1015"/>
<rect x="837" y="597" width="1" height="125" fill="#00000055"/>
<rect x="840" y="585" width="20" height="137" fill="#0f2515"/>
<rect x="859" y="585" width="1" height="137" fill="#00000055"/>
<rect x="862" y="614" width="28" height="108" fill="#282510"/>
<rect x="889" y="614" width="1" height="108" fill="#00000055"/>
<rect x="892" y="573" width="34" height="149" fill="#1e1828"/>
<rect x="925" y="573" width="1" height="149" fill="#00000055"/>
<rect x="928" y="574" width="34" height="148" fill="#3a2208"/>
<rect x="964" y="581" width="22" height="141" fill="#162832"/>
<rect x="988" y="620" width="36" height="102" fill="#281215"/>
<rect x="1026" y="614" width="26" height="108" fill="#0f2035"/>
<rect x="1051" y="614" width="1" height="108" fill="#00000055"/>
<rect x="1054" y="578" width="26" height="144" fill="#25200e"/>
<rect x="1082" y="563" width="30" height="159" fill="#12283a"/>
<rect x="1114" y="574" width="30" height="148" fill="#301020"/>
<rect x="1146" y="605" width="34" height="117" fill="#1a2a18"/>
<rect x="1179" y="605" width="1" height="117" fill="#00000055"/>
<rect x="1182" y="604" width="20" height="118" fill="#2a1a08"/>
<rect x="1204" y="587" width="26" height="135" fill="#0e1c30"/>
<rect x="1229" y="587" width="1" height="135" fill="#00000055"/>
<rect x="1232" y="619" width="36" height="103" fill="#281010"/>
<rect x="1267" y="619" width="1" height="103" fill="#00000055"/>
<rect x="1270" y="591" width="24" height="131" fill="#1e3060"/>
<rect x="1296" y="600" width="32" height="122" fill="#2a1015"/>
<rect x="1327" y="600" width="1" height="122" fill="#00000055"/>
<rect x="1330" y="587" width="32" height="135" fill="#0f2515"/>
<rect x="1361" y="587" width="1" height="135" fill="#00000055"/>
<rect x="1364" y="615" width="28" height="107" fill="#282510"/>
<rect x="1391" y="615" width="1" height="107" fill="#00000055"/>
<rect x="1394" y="587" width="26" height="135" fill="#1e1828"/>
<rect x="1422" y="582" width="26" height="140" fill="#3a2208"/>
<rect x="1450" y="615" width="18" height="107" fill="#162832"/>
<rect x="1470" y="602" width="28" height="120" fill="#281215"/>
<rect x="1497" y="602" width="1" height="120" fill="#00000055"/>
<rect x="1500" y="588" width="26" height="134" fill="#0f2035"/>
<rect x="1528" y="601" width="30" height="121" fill="#25200e"/>
<rect x="1557" y="601" width="1" height="121" fill="#00000055"/>
<rect x="1560" y="602" width="32" height="120" fill="#12283a"/>
<rect x="1594" y="602" width="28" height="120" fill="#301020"/>
<rect x="1621" y="602" width="1" height="120" fill="#00000055"/>
<rect x="0" y="722" width="1600" height="14" fill="#1a2535"/>
<rect x="0" y="736" width="1600" height="8" fill="#00000040"/>
<rect x="0" y="791" width="24" height="109" fill="#1a2a18"/>
<rect x="23" y="791" width="1" height="109" fill="#00000055"/>
<rect x="26" y="761" width="32" height="139" fill="#2a1a08"/>
<rect x="57" y="761" width="1" height="139" fill="#00000055"/>
<rect x="60" y="768" width="30" height="132" fill="#0e1c30"/>
<rect x="89" y="768" width="1" height="132" fill="#00000055"/>
<rect x="92" y="785" width="28" height="115" fill="#281010"/>
<rect x="122" y="801" width="32" height="99" fill="#1e3060"/>
<rect x="153" y="801" width="1" height="99" fill="#00000055"/>
<rect x="156" y="799" width="32" height="101" fill="#2a1015"/>
<rect x="190" y="762" width="32" height="138" fill="#0f2515"/>
<rect x="224" y="796" width="26" height="104" fill="#282510"/>
<rect x="252" y="775" width="32" height="125" fill="#1e1828"/>
<rect x="286" y="747" width="24" height="153" fill="#3a2208"/>
<rect x="312" y="796" width="26" height="104" fill="#162832"/>
<rect x="340" y="798" width="26" height="102" fill="#281215"/>
<rect x="365" y="798" width="1" height="102" fill="#00000055"/>
<rect x="368" y="793" width="18" height="107" fill="#0f2035"/>
<rect x="385" y="793" width="1" height="107" fill="#00000055"/>
<rect x="388" y="797" width="32" height="103" fill="#25200e"/>
<rect x="422" y="758" width="30" height="142" fill="#12283a"/>
<rect x="451" y="758" width="1" height="142" fill="#00000055"/>
<rect x="454" y="789" width="34" height="111" fill="#301020"/>
<rect x="487" y="789" width="1" height="111" fill="#00000055"/>
<rect x="490" y="750" width="26" height="150" fill="#1a2a18"/>
<rect x="518" y="745" width="34" height="155" fill="#2a1a08"/>
<rect x="554" y="799" width="34" height="101" fill="#0e1c30"/>
<rect x="587" y="799" width="1" height="101" fill="#00000055"/>
<rect x="590" y="748" width="20" height="152" fill="#281010"/>
<rect x="612" y="787" width="28" height="113" fill="#1e3060"/>
<rect x="642" y="792" width="28" height="108" fill="#2a1015"/>
<rect x="672" y="779" width="18" height="121" fill="#0f2515"/>
<rect x="689" y="779" width="1" height="121" fill="#00000055"/>
<rect x="692" y="785" width="26" height="115" fill="#282510"/>
<rect x="720" y="762" width="32" height="138" fill="#1e1828"/>
<rect x="754" y="749" width="28" height="151" fill="#3a2208"/>
<rect x="781" y="749" width="1" height="151" fill="#00000055"/>
<rect x="784" y="764" width="34" height="136" fill="#162832"/>
<rect x="817" y="764" width="1" height="136" fill="#00000055"/>
<rect x="820" y="796" width="22" height="104" fill="#281215"/>
<rect x="844" y="750" width="24" height="150" fill="#0f2035"/>
<rect x="867" y="750" width="1" height="150" fill="#00000055"/>
<rect x="870" y="799" width="20" height="101" fill="#25200e"/>
<rect x="889" y="799" width="1" height="101" fill="#00000055"/>
<rect x="892" y="759" width="34" height="141" fill="#12283a"/>
<rect x="925" y="759" width="1" height="141" fill="#00000055"/>
<rect x="928" y="777" width="32" height="123" fill="#301020"/>
<rect x="962" y="762" width="32" height="138" fill="#1a2a18"/>
<rect x="993" y="762" width="1" height="138" fill="#00000055"/>
<rect x="996" y="771" width="30" height="129" fill="#2a1a08"/>
<rect x="1028" y="800" width="34" height="100" fill="#0e1c30"/>
<rect x="1064" y="767" width="36" height="133" fill="#281010"/>
<rect x="1102" y="747" width="28" height="153" fill="#1e3060"/>
<rect x="1129" y="747" width="1" height="153" fill="#00000055"/>
<rect x="1132" y="768" width="34" height="132" fill="#2a1015"/>
<rect x="1168" y="769" width="32" height="131" fill="#0f2515"/>
<rect x="1199" y="769" width="1" height="131" fill="#00000055"/>
<rect x="1202" y="775" width="24" height="125" fill="#282510"/>
<rect x="1225" y="775" width="1" height="125" fill="#00000055"/>
<rect x="1228" y="792" width="32" height="108" fill="#1e1828"/>
<rect x="1259" y="792" width="1" height="108" fill="#00000055"/>
<rect x="1262" y="746" width="26" height="154" fill="#3a2208"/>
<rect x="1290" y="783" width="22" height="117" fill="#162832"/>
<rect x="1311" y="783" width="1" height="117" fill="#00000055"/>
<rect x="1314" y="783" width="24" height="117" fill="#281215"/>
<rect x="1337" y="783" width="1" height="117" fill="#00000055"/>
<rect x="1340" y="764" width="32" height="136" fill="#0f2035"/>
<rect x="1374" y="800" width="30" height="100" fill="#25200e"/>
<rect x="1406" y="784" width="32" height="116" fill="#12283a"/>
<rect x="1437" y="784" width="1" height="116" fill="#00000055"/>
<rect x="1440" y="752" width="22" height="148" fill="#301020"/>
<rect x="1461" y="752" width="1" height="148" fill="#00000055"/>
<rect x="1464" y="764" width="18" height="136" fill="#1a2a18"/>
<rect x="1481" y="764" width="1" height="136" fill="#00000055"/>
<rect x="1484" y="799" width="22" height="101" fill="#2a1a08"/>
<rect x="1505" y="799" width="1" height="101" fill="#00000055"/>
<rect x="1508" y="759" width="34" height="141" fill="#0e1c30"/>
<rect x="1541" y="759" width="1" height="141" fill="#00000055"/>
<rect x="1544" y="790" width="18" height="110" fill="#281010"/>
<rect x="1561" y="790" width="1" height="110" fill="#00000055"/>
<rect x="1564" y="777" width="32" height="123" fill="#1e3060"/>
<rect x="1595" y="777" width="1" height="123" fill="#00000055"/>
<rect x="1598" y="800" width="20" height="100" fill="#2a1015"/>
<rect x="1617" y="800" width="1" height="100" fill="#00000055"/>
<radialGradient id="vig" cx="50%" cy="50%" r="70%" gradientUnits="userSpaceOnUse" fx="50%" fy="50%">
  <stop offset="0%" stop-color="#000000" stop-opacity="0"/>
  <stop offset="100%" stop-color="#000000" stop-opacity="0.65"/>
</radialGradient>
<rect width="1600" height="900" fill="url(#vig)"/>
</svg>
